<?xml version="1.0" standalone="no"?>
<!DOCTYPE svg PUBLIC "-//W3C//DTD SVG 20010904//EN"
 "http://www.w3.org/TR/2001/REC-SVG-20010904/DTD/svg10.dtd">
<svg version="1.0" xmlns="http://www.w3.org/2000/svg"
 width="700.000000pt" height="700.000000pt" viewBox="0 0 700.000000 700.000000"
 preserveAspectRatio="xMidYMid meet">
<metadata>
Created by potrace 1.11, written by Peter Selinger 2001-2013
</metadata>
<g transform="translate(0.000000,700.000000) scale(0.100000,-0.100000)"
fill="#000000" stroke="none">
<path d="M2400 4294 l-485 -317 -305 -2 c-168 -2 -599 -4 -957 -6 l-653 -4 0
-31 0 -32 887 4 c489 3 894 7 901 9 6 2 12 0 12 -4 0 -5 -60 -48 -134 -96 -74
-47 -204 -132 -290 -188 -86 -56 -235 -154 -333 -217 -97 -63 -246 -160 -330
-215 -84 -55 -213 -139 -287 -187 -131 -86 -134 -88 -123 -113 7 -14 17 -25
22 -25 9 0 659 271 720 300 11 5 164 71 340 145 253 107 322 132 331 123 9
-10 268 -417 344 -541 l18 -29 48 69 c27 37 53 73 59 80 5 6 71 97 145 202
l135 190 223 1 c185 0 222 -2 215 -14 -4 -7 -31 -40 -59 -72 -29 -32 -87 -99
-130 -149 -43 -49 -82 -95 -88 -101 -21 -21 -101 -117 -114 -136 -12 -17 -11
-22 4 -39 10 -11 23 -18 29 -15 7 2 131 89 276 193 145 104 293 209 329 234
36 25 184 131 330 236 319 228 322 230 316 212 -3 -8 -62 -203 -131 -434 -70
-231 -133 -440 -141 -464 -8 -24 -12 -46 -10 -49 4 -3 113 85 146 118 3 3 34
30 70 60 36 30 67 57 70 60 3 3 100 86 215 185 116 98 224 191 241 205 l30 26
294 -3 c162 -2 296 -5 298 -8 2 -2 -11 -26 -30 -52 -20 -26 -51 -70 -70 -98
-19 -27 -96 -139 -171 -247 -75 -109 -137 -200 -137 -204 0 -4 9 -15 21 -25
21 -18 24 -16 298 205 152 122 416 334 586 471 171 137 400 321 509 409 469
379 601 483 604 476 2 -6 -26 -86 -168 -465 -26 -71 -68 -184 -93 -250 l-44
-120 -184 -5 -183 -5 -2 -30 c-1 -16 -5 -133 -8 -260 -4 -126 -9 -284 -11
-350 -2 -66 -7 -193 -10 -281 l-5 -162 26 -6 c15 -4 30 -3 35 1 4 4 92 235
194 513 103 278 189 507 191 509 2 3 177 4 389 2 l385 -2 0 33 0 33 -366 0
c-201 0 -370 2 -374 5 -5 3 49 161 119 350 250 672 259 700 242 687 -26 -19
-772 -618 -1246 -1000 -60 -49 -126 -102 -145 -117 -19 -15 -72 -57 -117 -93
-45 -36 -162 -130 -260 -209 -98 -79 -184 -147 -190 -151 -7 -4 66 105 162
243 96 138 175 254 175 258 0 4 -109 8 -243 9 -133 1 -277 2 -320 2 l-79 1 34
28 c47 39 85 72 132 114 23 21 44 38 49 38 7 0 -20 60 -27 60 -3 0 -270 -110
-572 -236 -6 -3 -8 -18 -6 -34 5 -33 -4 -31 132 -32 36 0 68 -3 72 -5 4 -2
-20 -27 -55 -55 -34 -29 -64 -54 -67 -57 -3 -4 -36 -33 -75 -66 -38 -33 -72
-62 -75 -65 -3 -3 -35 -31 -72 -62 -38 -32 -97 -83 -133 -114 l-65 -56 16 53
c9 30 45 151 81 269 36 118 86 285 112 370 l46 155 425 304 c353 251 425 307
422 324 -1 12 -7 26 -12 31 -5 5 -121 -18 -292 -59 -156 -37 -301 -71 -323
-76 -22 -5 -62 -14 -89 -22 l-49 -13 -53 -174 c-29 -96 -61 -199 -71 -227
l-18 -53 -410 -291 c-225 -161 -473 -337 -550 -392 -77 -55 -133 -91 -124 -81
17 21 136 160 209 244 94 109 100 118 87 122 -6 2 -126 3 -264 3 -139 -1 -253
1 -253 3 0 3 37 57 83 121 105 147 102 142 79 133 -10 -4 -148 -63 -306 -132
l-287 -125 3 -30 3 -30 143 -5 144 -5 -27 -40 c-65 -96 -269 -375 -274 -375
-3 0 -26 33 -50 73 -55 89 -290 459 -295 464 -3 3 -231 -92 -791 -329 -143
-61 -268 -115 -278 -120 -54 -28 6 15 188 133 113 74 306 199 428 279 122 80
281 183 352 229 72 47 167 109 213 139 l84 55 346 2 347 2 83 209 c174 442
190 484 184 484 -4 0 -225 -142 -492 -316z m368 149 c-24 -51 -55 -126 -143
-353 -21 -52 -40 -98 -44 -102 -6 -7 -529 -13 -536 -6 -2 2 65 47 148 101 84
54 244 159 357 232 193 126 226 146 218 128z m1742 -82 c-30 -22 -174 -125
-320 -229 -146 -104 -267 -188 -269 -186 -1 1 6 31 17 66 11 35 34 108 51 163
l30 101 58 12 c92 19 99 20 283 66 96 25 182 45 190 45 8 1 -10 -17 -40 -38z
m-190 -781 c-59 -50 -61 -51 -120 -48 l-61 3 113 47 c62 25 117 47 121 47 4 1
-19 -22 -53 -49z m-1848 -53 l-41 -53 -81 -1 c-44 0 -80 3 -80 8 0 5 6 9 13
10 6 0 59 22 117 48 58 27 107 47 109 45 2 -2 -15 -27 -37 -57z m3674 -50 c6
-5 -63 -207 -96 -282 -8 -18 -143 -382 -177 -480 -8 -22 -16 -42 -19 -44 -2
-2 -2 49 1 115 2 65 7 223 11 349 7 235 11 350 13 350 180 0 262 -2 267 -8z"/>
</g>
</svg>
